<svg width="82" height="123" viewBox="0 0 82 123" fill="none" xmlns="http://www.w3.org/2000/svg">
<path d="M80.5 83C80.5 104.228 62.8504 121.5 41 121.5C19.1496 121.5 1.5 104.228 1.5 83C1.5 61.7717 19.1496 44.5 41 44.5C62.8504 44.5 80.5 61.7717 80.5 83Z" fill="#6C75C5" stroke="black" stroke-width="3"/>
<path d="M66.5035 3C84.4712 57.7107 55.1292 41.0347 41.2433 58.0068L66.5035 3Z" fill="#6EDAA6" stroke="black" stroke-width="2"/>
<path d="M23.5107 20.561C8.04832 63.4306 30.9606 47.1966 41.0036 57.9129L23.5107 20.561Z" fill="#6EDAA6" stroke="black" stroke-width="2"/>
<path d="M20.7713 63C12.989 66.1939 11.6314 73.0847 12.128 78.0775M12.128 78.0775C12.2629 79.434 12.5347 80.6504 12.8517 81.6145L12.128 78.0775Z" stroke="#ECECEE" stroke-width="1.5"/>
</svg>